<?xml version="1.0"?>
<svg width="1116" height="229.9" xmlns="http://www.w3.org/2000/svg" xmlns:svg="http://www.w3.org/2000/svg" version="1.1">
 <!-- Generator: Adobe Illustrator 29.8.2, SVG Export Plug-In . SVG Version: 2.1.1 Build 3)  -->
 <defs>
  <style>.st0 {
        fill: #ffe300;
      }

      .st1 {
        fill: #707173;
      }</style>
 </defs>
 <g class="layer">
  <title>Layer 1</title>
  <rect class="st0" height="228.9" id="svg_1" width="228.9" y="0.2"/>
  <path d="m211.7,43.1l-125.9,0l10.4,20.7c2.4,4.9 7.4,7.9 12.8,7.9l102.8,0c1.6,0 2.9,-1.3 2.9,-2.9l0,-22.9c0,-1.6 -1.3,-2.9 -2.9,-2.9l0,0l-0.1,0.1z" id="svg_2"/>
  <path d="m17.2,43.1l68.7,0l-10.4,-20.7c-2.4,-4.8 -7.4,-7.9 -12.8,-7.9l-45.5,0c-1.6,0 -2.9,1.3 -2.9,2.9l0,22.9c0,1.6 1.3,2.9 2.9,2.9l0,0l0,-0.1z" id="svg_3"/>
  <path d="m211.7,186.1l-68.7,0l10.4,20.7c2.4,4.9 7.4,7.9 12.8,7.9l45.5,0c1.6,0 2.9,-1.3 2.9,-2.9l0,-22.9c0,-1.6 -1.3,-2.9 -2.9,-2.9l0,0l0,0.1z" id="svg_4"/>
  <path d="m17.2,186.1l125.9,0l-10.4,-20.7c-2.4,-4.9 -7.4,-7.9 -12.8,-7.9l-102.7,0c-1.6,0 -2.9,1.3 -2.9,2.9l0,22.9c0,1.6 1.3,2.9 2.9,2.9l0,0l0,-0.1z" id="svg_5"/>
  <path d="m211.7,114.6l-97.3,0l10.4,-20.7c2.4,-4.9 7.4,-7.9 12.8,-7.9l74.1,0c1.6,0 2.9,1.3 2.9,2.9l0,22.9c0,1.6 -1.3,2.9 -2.9,2.9l0,-0.1z" id="svg_6"/>
  <path d="m17.2,114.6l97.3,0l-10.4,20.7c-2.4,4.9 -7.4,7.9 -12.8,7.9l-74.1,0c-1.6,0 -2.9,-1.3 -2.9,-2.9l0,-22.9c0,-1.6 1.3,-2.9 2.9,-2.9l0,0.1z" id="svg_7"/>
  <path class="st1" d="m297.2,32.8l-4.8,0l-7.6,-13.6l-7.5,0l0,13.6l-4.5,0l0,-32.5l15.3,0c1.4,0 2.6,0.4 3.6,1.1c0.4,0.3 0.9,0.8 1.6,1.4s1.1,1.1 1.3,1.5c0.6,0.9 0.9,2 0.9,3.1l0,4.9c0,1.1 -0.3,2.1 -0.9,3c-0.2,0.3 -0.6,0.8 -1.3,1.5s-1.2,1.1 -1.6,1.4c-0.8,0.6 -1.6,0.9 -2.4,1l7.9,13.7l0,0l0,-0.1zm-6.2,-20.7l0,-4.7c0,-0.4 0,-0.6 0,-0.6c-0.2,-0.4 -0.6,-0.8 -1.2,-1.4s-1.1,-0.9 -1.4,-0.9l-11.1,0l0,10.5l10.8,0c0.4,0 1,-0.3 1.6,-0.8c0.7,-0.5 1.1,-1 1.3,-1.5c0,0 0,-0.3 0,-0.6l0,0z" id="svg_8"/>
  <path class="st1" d="m325.3,32.8l-20,0l0,-32.5l20,0l0,4.2l-15.5,0l0,9.9l14.6,0l0,4.2l-14.6,0l0,9.9l15.5,0l0,4.2l0,0l0,0.1z" id="svg_9"/>
  <path class="st1" d="m357.1,25.5c0,1.2 -0.2,2.1 -0.8,2.8c-0.3,0.5 -0.9,1.2 -1.8,2c-0.9,0.8 -1.6,1.4 -2.1,1.8c-1.1,0.6 -2.1,0.9 -3.1,0.9l-7.3,0c-1,0 -2.1,-0.3 -3.1,-0.9c-0.5,-0.3 -1.2,-0.9 -2.1,-1.8s-1.5,-1.5 -1.8,-2c-0.5,-0.8 -0.8,-1.7 -0.8,-2.8l0,-25.2l4.5,0l0,25.2c0,0.4 0.4,0.9 1.3,1.8c0.9,0.8 1.5,1.3 2,1.6c0.1,0 0.3,0.1 0.4,0.1l6.7,0c0.2,0 0.3,0 0.5,-0.1c0.5,-0.2 1.1,-0.7 1.9,-1.6c0.8,-0.8 1.2,-1.4 1.2,-1.8l0,-25.2l4.5,0l0,25.3l0,0l-0.1,-0.1z" id="svg_10"/>
  <path class="st1" d="m387.2,4.5l-9.3,0l0,28.3l-4.5,0l0,-28.3l-9.3,0l0,-4.2l23,0l0,4.2l0,0l0.1,0z" id="svg_11"/>
  <path class="st1" d="m414.3,32.8l-19.6,0l0,-32.5l4.5,0l0,28.3l15.2,0l0,4.2l0,0l-0.1,0z" id="svg_12"/>
  <path class="st1" d="m426.4,32.8l-4.5,0l0,-32.5l4.5,0s0,32.6 0,32.5z" id="svg_13"/>
  <path class="st1" d="m458.9,32.8l-5.2,0l-13.7,-24.8l0,24.8l-4.4,0l0,-32.5l5.3,0l13.6,25.1l0,-25.1l4.4,0s0,32.6 0,32.5z" id="svg_14"/>
  <path class="st1" d="m493.1,32.8l-4.3,0c0,-0.2 -0.1,-0.6 -0.2,-1.1s-0.2,-0.7 -0.2,-0.8c-0.1,0 -0.3,0.2 -0.7,0.5c-0.3,0.3 -0.6,0.5 -0.8,0.6c-0.2,0.1 -0.4,0.3 -0.7,0.5s-0.6,0.3 -0.9,0.4c-0.3,0 -0.6,0.1 -1,0.1l-8.3,0c-1,0 -2.1,-0.3 -3.2,-0.9c-0.5,-0.3 -1.2,-0.9 -2.1,-1.8s-1.5,-1.5 -1.8,-2c-0.5,-0.8 -0.8,-1.8 -0.8,-2.9l0,-17.7c0,-1.1 0.3,-2.1 0.8,-2.9c0.4,-0.5 1,-1.2 1.8,-2.1c0.9,-0.9 1.5,-1.5 2.1,-1.8c1.1,-0.6 2.2,-0.9 3.2,-0.9l8.3,0c2.2,0 4.5,1.5 6.7,4.4c0.4,0.5 0.9,1.4 1.5,2.7l-4.3,1.2l-0.5,-1.1c-0.3,-0.5 -0.7,-1.1 -1.4,-1.7s-1.2,-1 -1.6,-1.3c-0.1,0 -0.3,-0.1 -0.5,-0.1l-8,0c-0.2,0 -0.3,0 -0.5,0.1c-0.4,0.2 -1,0.6 -1.7,1.3s-1.1,1.2 -1.4,1.7c0,0.2 -0.1,0.3 -0.1,0.5l0,17.5c0,0.4 0.4,1.1 1.2,1.9c0.8,0.8 1.5,1.3 2,1.6c0,0 0.2,0 0.4,0l7.8,0c0.2,0 0.3,0 0.5,-0.1c0.5,-0.2 1.2,-0.8 2,-1.6s1.2,-1.4 1.2,-1.9l0,-6.7l-7.4,0l0,-4.2l11.9,0l0,10.9c0,1.3 0.3,3.8 0.9,7.6l0,0l0.1,0.1z" id="svg_15"/>
  <path class="st1" d="m521.9,32.8l-20,0l0,-32.5l20,0l0,4.2l-15.5,0l0,9.9l14.7,0l0,4.2l-14.7,0l0,9.9l15.5,0l0,4.2l0,0l0,0.1z" id="svg_16"/>
  <path class="st1" d="m554.6,32.8l-5.2,0l-13.7,-24.8l0,24.8l-4.4,0l0,-32.5l5.3,0l13.6,25.1l0,-25.1l4.4,0s0,32.6 0,32.5z" id="svg_17"/>
  <path class="st1" d="m597.8,25.5c0,1.2 -0.2,2.1 -0.8,2.8c-0.3,0.5 -0.9,1.2 -1.8,2c-0.9,0.8 -1.6,1.4 -2.1,1.8c-1.1,0.6 -2.1,0.9 -3.1,0.9l-7.3,0c-1,0 -2.1,-0.3 -3.2,-0.9c-0.5,-0.3 -1.2,-0.9 -2.1,-1.8s-1.5,-1.5 -1.8,-2c-0.5,-0.8 -0.8,-1.7 -0.8,-2.8l0,-25.2l4.5,0l0,25.2c0,0.4 0.4,0.9 1.3,1.8c0.8,0.8 1.5,1.3 2,1.6c0.1,0 0.3,0.1 0.4,0.1l6.7,0c0.2,0 0.3,0 0.5,-0.1c0.5,-0.2 1.1,-0.7 1.9,-1.6c0.8,-0.8 1.2,-1.4 1.2,-1.8l0,-25.2l4.5,0l0,25.3l0,-0.1z" id="svg_18"/>
  <path class="st1" d="m629.9,32.8l-5.2,0l-13.7,-24.8l0,24.8l-4.4,0l0,-32.5l5.3,0l13.6,25.1l0,-25.1l4.4,0s0,32.6 0,32.5z" id="svg_19"/>
  <path class="st1" d="m643.4,32.8l-4.5,0l0,-32.5l4.5,0s0,32.6 0,32.5z" id="svg_20"/>
  <path class="st1" d="m677,0.3l-10.8,32.6l-5.9,0l-10.8,-32.6l4.7,0l9,27.8l9,-27.8l4.7,0l0.1,0z" id="svg_21"/>
  <path class="st1" d="m703.3,32.8l-20,0l0,-32.5l20,0l0,4.2l-15.5,0l0,9.9l14.7,0l0,4.2l-14.7,0l0,9.9l15.5,0l0,4.2l0,0l0,0.1z" id="svg_22"/>
  <path class="st1" d="m736.8,32.8l-4.8,0l-7.7,-13.6l-7.5,0l0,13.6l-4.5,0l0,-32.5l15.3,0c1.4,0 2.6,0.4 3.6,1.1c0.4,0.3 0.9,0.8 1.6,1.4s1.1,1.1 1.3,1.5c0.6,0.9 0.9,2 0.9,3.1l0,4.9c0,1.1 -0.3,2.1 -0.9,3c-0.2,0.3 -0.7,0.8 -1.3,1.5c-0.7,0.7 -1.2,1.1 -1.6,1.4c-0.8,0.6 -1.6,0.9 -2.4,1l7.9,13.7l0,0l0.1,-0.1zm-6.1,-20.7l0,-4.7c0,-0.4 0,-0.6 0,-0.6c-0.2,-0.4 -0.6,-0.8 -1.2,-1.4s-1.1,-0.9 -1.4,-0.9l-11.1,0l0,10.5l10.8,0c0.4,0 1,-0.3 1.7,-0.8c0.7,-0.5 1.1,-1 1.3,-1.5c0,0 0,-0.3 0,-0.6l0,0l-0.1,0z" id="svg_23"/>
  <path class="st1" d="m769,25.5c0,1.2 -0.2,2.2 -0.8,2.9c-0.3,0.5 -0.9,1.2 -1.8,2c-0.9,0.8 -1.6,1.4 -2.1,1.8c-1.1,0.6 -2.1,0.9 -3.1,0.9l-9.1,0c-2.3,0 -4.5,-1.5 -6.7,-4.4c-0.3,-0.4 -0.8,-1.3 -1.5,-2.8l4.3,-1.1l0.5,1c0.3,0.6 0.8,1.2 1.4,1.8s1.2,1 1.7,1.3c0.1,0 0.3,0.1 0.5,0.1l8.7,0c0.1,0 0.3,0 0.4,-0.1c0.5,-0.2 1.2,-0.8 2,-1.5c0.8,-0.8 1.2,-1.4 1.2,-1.8l0,-3.3c0,-0.4 -0.1,-0.8 -0.4,-1.2s-0.5,-0.6 -0.9,-0.7l-14.8,-3.8c-1.2,-0.3 -2.1,-1 -2.8,-2.1c-0.7,-1.1 -1,-2.2 -1,-3.5l0,-3.3c0,-1.2 0.2,-2.2 0.8,-2.9c0.3,-0.5 0.9,-1.2 1.8,-2.1c0.9,-0.9 1.6,-1.5 2.1,-1.8c1.1,-0.6 2.1,-0.9 3.1,-0.9l8,0c2.2,0 4.5,1.5 6.7,4.4c0.4,0.5 0.9,1.4 1.5,2.8l-4.3,1.2l-0.5,-1.1c-0.3,-0.5 -0.8,-1.1 -1.4,-1.7c-0.7,-0.6 -1.2,-1.1 -1.7,-1.3c-0.1,0 -0.2,0 -0.4,0l-7.5,0c-0.1,0 -0.3,0 -0.5,0.1c-0.5,0.2 -1.1,0.7 -1.9,1.6c-0.8,0.8 -1.2,1.4 -1.2,1.8l0,3.1c0,0.4 0.1,0.8 0.3,1.1c0.2,0.3 0.5,0.6 0.8,0.6l14.7,3.9c1.2,0.3 2.2,1 2.9,2c0.7,1 1.1,2.2 1.1,3.4l0,3.7l0,0l-0.1,-0.1z" id="svg_24"/>
  <path class="st1" d="m781.8,32.8l-4.5,0l0,-32.5l4.5,0s0,32.6 0,32.5z" id="svg_25"/>
  <path class="st1" d="m812.1,4.5l-9.3,0l0,28.3l-4.5,0l0,-28.3l-9.3,0l0,-4.2l23,0l0,4.2l0,0l0.1,0z" id="svg_26"/>
  <path class="st1" d="m842.5,0.3l-11,18.7l0,13.8l-4.5,0l0,-13.8l-10.9,-18.7l4.9,0l8.3,14.2s0.6,-1.2 2,-3.6s2.8,-4.7 4.2,-7.1l2.1,-3.6l4.8,0l0.1,0.1z" id="svg_27"/>
  <path class="st1" d="m292.7,56.4l-15.5,0l0,9.9l14.6,0l0,4.2l-14.6,0l0,14.2l-4.5,0l0,-32.6l19.9,0l0,4.2l0.1,0.1z" id="svg_28"/>
  <path class="st1" d="m324.9,84.7l-4.8,0l-2.4,-7.3l-14.1,0l-2.5,7.3l-4.7,0l11.3,-32.6l5.9,0l11.3,32.6zm-8.6,-11.4l-5.6,-16.6l-5.6,16.6l11.3,0l-0.1,0z" id="svg_29"/>
  <path class="st1" d="m336.1,66.4l12.7,-14.2l5.9,0l-14.8,16.3l14.9,16.3l-5.9,0l-12.8,-14.2l-0.5,0l0,14.2l-4.5,0l0,-32.6l4.5,0l0,14.2l0.5,0z" id="svg_30"/>
  <path class="st1" d="m383.5,77.4c0,1.2 -0.2,2.1 -0.8,2.8c-0.3,0.5 -0.9,1.2 -1.8,2c-0.9,0.9 -1.6,1.4 -2.1,1.8c-1.1,0.6 -2.1,0.9 -3.1,0.9l-7.3,0c-1,0 -2.1,-0.3 -3.1,-0.9c-0.5,-0.3 -1.2,-0.9 -2.1,-1.8c-0.9,-0.9 -1.5,-1.5 -1.8,-2c-0.5,-0.8 -0.8,-1.7 -0.8,-2.8l0,-25.3l4.5,0l0,25.2c0,0.4 0.4,0.9 1.3,1.8c0.9,0.8 1.5,1.3 2,1.6c0.1,0 0.3,0.1 0.4,0.1l6.7,0c0.2,0 0.3,0 0.5,-0.1c0.5,-0.2 1.1,-0.7 1.9,-1.6c0.8,-0.8 1.2,-1.4 1.2,-1.8l0,-25.2l4.5,0l0,25.3l0,0l-0.1,0z" id="svg_31"/>
  <path class="st1" d="m412,84.7l-19.6,0l0,-32.6l4.5,0l0,28.3l15.2,0l0,4.2l-0.1,0.1z" id="svg_32"/>
  <path class="st1" d="m435.3,56.4l-9.3,0l0,28.3l-4.5,0l0,-28.3l-9.3,0l0,-4.2l23,0l0,4.2l0,0l0.1,0z" id="svg_33"/>
  <path class="st1" d="m466.8,84.7l-4.8,0l-2.4,-7.3l-14.1,0l-2.5,7.3l-4.7,0l11.3,-32.6l5.9,0l11.3,32.6l0,0zm-16.3,-36.8l-4.5,0l0,-4.8l4.5,0l0,4.8zm7.7,25.4l-5.6,-16.6l-5.6,16.6l11.3,0l-0.1,0zm1,-25.4l-4.5,0l0,-4.8l4.5,0l0,4.8z" id="svg_34"/>
  <path class="st1" d="m491,56.4l-9.3,0l0,28.3l-4.5,0l0,-28.3l-9.3,0l0,-4.2l23,0l0,4.2l0,0l0.1,0z" id="svg_35"/>
  <path d="m287.6,229l-14.7,0l0,-107.4l14.7,0l0,107.4z" id="svg_36"/>
  <path d="m391.6,229l-17,0l-45.1,-82l0,82l-14.5,0l0,-107.4l17.4,0l44.8,82.9l0,-82.9l14.5,0l0,107.4l-0.1,0z" id="svg_37"/>
  <path d="m484.9,135.6l-51,0l0,32.8l48.3,0l0,14l-48.3,0l0,46.7l-14.7,0l0,-107.4l65.7,0l0,14l0,0l0,-0.1z" id="svg_38"/>
  <path d="m578,204.8c0,3.7 -0.9,6.9 -2.7,9.5c-1.1,1.7 -3,3.9 -5.9,6.7c-2.9,2.8 -5.2,4.7 -7,5.8c-3.6,2 -7,3 -10.4,3l-28.3,0c-3.2,0 -6.6,-1 -10.2,-3c-1.8,-1.1 -4.2,-3 -7.1,-5.8c-2.9,-2.8 -4.9,-5 -6,-6.7c-1.7,-2.4 -2.5,-5.5 -2.5,-9.5l0,-58.9c0,-3.9 0.8,-7.1 2.5,-9.5c1.1,-1.7 3.1,-3.9 6,-6.8c2.9,-2.9 5.3,-4.8 7.1,-5.9c3.6,-2 7,-3 10.2,-3l28.3,0c3.3,0 6.8,1 10.4,3c1.7,1 3.9,2.9 6.8,5.8c2.9,2.9 4.9,5.2 6.1,6.9c1.8,2.6 2.7,5.8 2.7,9.5l0,58.9l0,0zm-14.7,-0.1l0,-58.4c0,-0.6 -0.1,-1.1 -0.4,-1.6c-1,-1.7 -2.5,-3.5 -4.7,-5.6c-2.2,-2 -3.9,-3.4 -5.2,-4.1c-0.5,-0.2 -1,-0.4 -1.6,-0.4l-26.8,0c-0.6,0 -1.1,0.1 -1.6,0.4c-1.7,0.8 -3.8,2.6 -6.4,5.2s-3.9,4.6 -3.9,6.1l0,58.4c0,1.2 1.3,3.1 4,5.8s4.8,4.4 6.3,5.1c0.5,0.2 1,0.4 1.6,0.4l26.8,0c0.6,0 1.1,-0.1 1.6,-0.4c1.7,-0.8 3.8,-2.5 6.3,-5c2.6,-2.5 3.8,-4.5 3.8,-5.9l0,0l0.2,0z" id="svg_39"/>
  <path d="m678,229l-15.9,0l-25.2,-44.8l-24.7,0l0,44.8l-14.7,0l0,-107.4l50.5,0c4.5,0 8.5,1.2 12,3.8c1.3,1 3,2.5 5.2,4.6s3.6,3.8 4.3,4.8c2,3.1 3,6.5 3,10.2l0,16.1c0,3.6 -1,6.9 -3,10c-0.7,1.1 -2.2,2.7 -4.3,4.8s-3.9,3.7 -5.2,4.6c-2.6,1.9 -5.3,3 -8,3.2l26.1,45.1l0,0l-0.1,0.2zm-20.2,-68.2l0,-15.4c0,-1.2 0,-1.9 -0.2,-2c-0.7,-1.2 -2.1,-2.8 -4.1,-4.7c-2,-2 -3.6,-3 -4.7,-3.1l-36.7,0l0,34.7l35.6,0c1.4,0 3.2,-0.9 5.5,-2.7c2.2,-1.8 3.7,-3.4 4.4,-4.8c0.1,-0.2 0.2,-0.9 0.2,-2l0,0z" id="svg_40"/>
  <path d="m790.6,229l-14.3,0l0,-85.4l-28.1,57.6l-9.7,0l-27.8,-57.6l0,85.4l-14.5,0l0,-107.4l18.6,0l28.6,58.5l28.8,-58.5l18.3,0l0,107.4l0,0l0.1,0z" id="svg_41"/>
  <path d="m903.9,229l-15.8,0l-8,-24l-46.5,0l-8.2,24l-15.6,0l37.4,-107.4l19.3,0l37.4,107.4l0,0zm-28.5,-37.8l-18.6,-54.6l-18.6,54.6l37.2,0z" id="svg_42"/>
  <path d="m979.1,135.6l-30.6,0l0,93.4l-14.7,0l0,-93.4l-30.6,0l0,-14l75.9,0l0,14l0,0z" id="svg_43"/>
  <path d="m1014.4,229l-14.7,0l0,-107.4l14.7,0l0,107.4z" id="svg_44"/>
  <path d="m1054.6,168.5l41.9,-46.9l19.3,0l-48.9,53.7l49.1,53.7l-19.3,0l-42.1,-46.7l-1.6,0l0,46.7l-14.7,0l0,-107.4l14.7,0l0,46.9l1.6,0l0,0z" id="svg_45"/>
 </g>
</svg>